# xmcd
#
# Track frame offsets:
#	150
#	20855
#	41781
#	65303
#	89421
#	111178
#	130387
#	154233
#
# Disc length: 2325 seconds
#
# Revision: 1
# Processed by: cddbd v1.5.2PL0 Copyright (c) Steve Scherf et al.
# Submitted via: EZCDAudioConverter 8.0.2.1
#
DISCID=6f091308
DTITLE=Trần Tâm - Vol 03. Người Phụ Nữ Tự Tin, Cho Đi Cuộc Tình
DYEAR=2004
DGENRE=blues
TTITLE0=Trần Tâm - Cho Đi Cuộc Tình
TTITLE1=Trần Tâm, Uyên Trang - Đau một lần rồi thôi
TTITLE2=Trần Tâm - Em đã ra đi
TTITLE3=Trần Tâm - Người Phụ Nữ Tự Tin
TTITLE4=Trần Tâm - Vị đắng tình yêu
TTITLE5=Trần Tâm - Vũ điệu Chachacha
TTITLE6=Trần Tâm - Mẹ ơi! Con sẽ trở về
TTITLE7=Trần Tâm - Đau một lần rồi thôi
EXTD=
EXTT0=
EXTT1=
EXTT2=
EXTT3=
EXTT4=
EXTT5=
EXTT6=
EXTT7=
PLAYORDER=
